<mxfile host="www.draw.io" modified="2019-11-11T15:09:45.261Z" agent="Mozilla/5.0 (X11; Linux x86_64) AppleWebKit/537.36 (KHTML, like Gecko) Chrome/78.0.3904.70 Safari/537.36" etag="R8LWRMAAD4HlJQfhatPq" version="12.2.3" type="github" pages="1">
  <diagram id="EdAOTdUpAiUYNW-F2-T8" name="Page-1">
    <mxGraphModel dx="854" dy="456" grid="1" gridSize="10" guides="1" tooltips="1" connect="1" arrows="1" fold="1" page="1" pageScale="1" pageWidth="827" pageHeight="1169" math="0" shadow="0">
      <root>
        <mxCell id="0"/>
        <mxCell id="1" parent="0"/>
        <mxCell id="CgS1tnxDoKYdbe5IHRPY-1" style="edgeStyle=orthogonalEdgeStyle;rounded=0;orthogonalLoop=1;jettySize=auto;html=1;exitX=0.25;exitY=1;exitDx=0;exitDy=0;entryX=0.25;entryY=0;entryDx=0;entryDy=0;fontStyle=1;fontFamily=Helvetica;strokeWidth=4;endSize=0;startSize=0;startArrow=none;startFill=0;endArrow=classicThin;endFill=1;" edge="1" parent="1" source="CgS1tnxDoKYdbe5IHRPY-2" target="CgS1tnxDoKYdbe5IHRPY-5">
          <mxGeometry relative="1" as="geometry"/>
        </mxCell>
        <mxCell id="CgS1tnxDoKYdbe5IHRPY-2" value="Istruction&lt;br&gt;Cache" style="rounded=0;whiteSpace=wrap;html=1;fontStyle=1;strokeWidth=2;fontFamily=Helvetica;" vertex="1" parent="1">
          <mxGeometry x="100" y="44" width="120" height="120" as="geometry"/>
        </mxCell>
        <mxCell id="CgS1tnxDoKYdbe5IHRPY-3" style="edgeStyle=orthogonalEdgeStyle;rounded=0;orthogonalLoop=1;jettySize=auto;html=1;exitX=0.75;exitY=0;exitDx=0;exitDy=0;entryX=0.75;entryY=1;entryDx=0;entryDy=0;fontStyle=1;fontFamily=Helvetica;" edge="1" parent="1" source="CgS1tnxDoKYdbe5IHRPY-5" target="CgS1tnxDoKYdbe5IHRPY-2">
          <mxGeometry relative="1" as="geometry"/>
        </mxCell>
        <mxCell id="CgS1tnxDoKYdbe5IHRPY-4" style="edgeStyle=orthogonalEdgeStyle;rounded=0;orthogonalLoop=1;jettySize=auto;html=1;exitX=0.25;exitY=1;exitDx=0;exitDy=0;entryX=0.25;entryY=0;entryDx=0;entryDy=0;fontStyle=1;fontFamily=Helvetica;startArrow=classic;startFill=1;endArrow=none;endFill=0;" edge="1" parent="1" source="CgS1tnxDoKYdbe5IHRPY-5" target="CgS1tnxDoKYdbe5IHRPY-8">
          <mxGeometry relative="1" as="geometry"/>
        </mxCell>
        <mxCell id="CgS1tnxDoKYdbe5IHRPY-5" value="Fetch1" style="rounded=0;whiteSpace=wrap;html=1;fontStyle=1;strokeWidth=2;fontFamily=Helvetica;" vertex="1" parent="1">
          <mxGeometry x="100" y="244" width="120" height="60" as="geometry"/>
        </mxCell>
        <mxCell id="CgS1tnxDoKYdbe5IHRPY-6" style="edgeStyle=orthogonalEdgeStyle;rounded=0;orthogonalLoop=1;jettySize=auto;html=1;exitX=0.75;exitY=0;exitDx=0;exitDy=0;fontStyle=1;entryX=0.75;entryY=1;entryDx=0;entryDy=0;fontFamily=Helvetica;startArrow=classicThin;startFill=1;endArrow=none;endFill=0;strokeWidth=4;endSize=0;startSize=0;" edge="1" parent="1" source="CgS1tnxDoKYdbe5IHRPY-8" target="CgS1tnxDoKYdbe5IHRPY-5">
          <mxGeometry relative="1" as="geometry">
            <mxPoint x="110" y="404" as="targetPoint"/>
          </mxGeometry>
        </mxCell>
        <mxCell id="CgS1tnxDoKYdbe5IHRPY-7" style="edgeStyle=orthogonalEdgeStyle;rounded=0;orthogonalLoop=1;jettySize=auto;html=1;exitX=0.5;exitY=1;exitDx=0;exitDy=0;entryX=0.5;entryY=0;entryDx=0;entryDy=0;fontStyle=1;fontFamily=Helvetica;strokeWidth=4;endSize=0;startSize=0;startArrow=none;startFill=0;endArrow=classicThin;endFill=1;" edge="1" parent="1" source="CgS1tnxDoKYdbe5IHRPY-8" target="CgS1tnxDoKYdbe5IHRPY-10">
          <mxGeometry relative="1" as="geometry"/>
        </mxCell>
        <mxCell id="CgS1tnxDoKYdbe5IHRPY-8" value="Fetch2" style="rounded=0;whiteSpace=wrap;html=1;fontStyle=1;strokeWidth=2;fontFamily=Helvetica;" vertex="1" parent="1">
          <mxGeometry x="100" y="374" width="120" height="60" as="geometry"/>
        </mxCell>
        <mxCell id="CgS1tnxDoKYdbe5IHRPY-9" style="edgeStyle=orthogonalEdgeStyle;rounded=1;orthogonalLoop=1;jettySize=auto;html=1;exitX=1;exitY=0.5;exitDx=0;exitDy=0;entryX=0;entryY=0.5;entryDx=0;entryDy=0;fontFamily=Helvetica;strokeWidth=4;endSize=0;startSize=0;startArrow=none;startFill=0;endArrow=classicThin;endFill=1;" edge="1" parent="1" source="CgS1tnxDoKYdbe5IHRPY-10" target="CgS1tnxDoKYdbe5IHRPY-16">
          <mxGeometry relative="1" as="geometry">
            <mxPoint x="290" y="352" as="targetPoint"/>
            <Array as="points">
              <mxPoint x="240" y="534"/>
              <mxPoint x="240" y="414"/>
            </Array>
          </mxGeometry>
        </mxCell>
        <mxCell id="CgS1tnxDoKYdbe5IHRPY-10" value="&lt;span&gt;Decode&lt;/span&gt;" style="rounded=0;whiteSpace=wrap;html=1;fontStyle=1;strokeWidth=2;fontFamily=Helvetica;" vertex="1" parent="1">
          <mxGeometry x="100" y="503.5" width="120" height="60" as="geometry"/>
        </mxCell>
        <mxCell id="CgS1tnxDoKYdbe5IHRPY-11" style="edgeStyle=orthogonalEdgeStyle;rounded=0;orthogonalLoop=1;jettySize=auto;html=1;exitX=0.25;exitY=1;exitDx=0;exitDy=0;entryX=0.804;entryY=0.004;entryDx=0;entryDy=0;entryPerimeter=0;" edge="1" parent="1" source="CgS1tnxDoKYdbe5IHRPY-13" target="CgS1tnxDoKYdbe5IHRPY-16">
          <mxGeometry relative="1" as="geometry">
            <mxPoint x="660" y="224" as="targetPoint"/>
          </mxGeometry>
        </mxCell>
        <mxCell id="CgS1tnxDoKYdbe5IHRPY-12" style="edgeStyle=orthogonalEdgeStyle;rounded=0;orthogonalLoop=1;jettySize=auto;html=1;exitX=0.75;exitY=1;exitDx=0;exitDy=0;entryX=0.935;entryY=0.004;entryDx=0;entryDy=0;entryPerimeter=0;startArrow=classic;startFill=1;endArrow=none;endFill=0;" edge="1" parent="1" source="CgS1tnxDoKYdbe5IHRPY-13" target="CgS1tnxDoKYdbe5IHRPY-16">
          <mxGeometry relative="1" as="geometry"/>
        </mxCell>
        <mxCell id="CgS1tnxDoKYdbe5IHRPY-13" value="Data&lt;br&gt;Cache" style="rounded=0;whiteSpace=wrap;html=1;fontStyle=1;strokeWidth=2;fontFamily=Helvetica;" vertex="1" parent="1">
          <mxGeometry x="610" y="44" width="120" height="120" as="geometry"/>
        </mxCell>
        <mxCell id="CgS1tnxDoKYdbe5IHRPY-14" style="edgeStyle=orthogonalEdgeStyle;rounded=1;orthogonalLoop=1;jettySize=auto;html=1;exitX=0;exitY=0.75;exitDx=0;exitDy=0;entryX=0;entryY=0.5;entryDx=0;entryDy=0;startArrow=none;startFill=0;endArrow=classic;endFill=1;" edge="1" parent="1" source="CgS1tnxDoKYdbe5IHRPY-16" target="CgS1tnxDoKYdbe5IHRPY-5">
          <mxGeometry relative="1" as="geometry">
            <Array as="points">
              <mxPoint x="260" y="499"/>
              <mxPoint x="260" y="574"/>
              <mxPoint x="80" y="574"/>
              <mxPoint x="80" y="274"/>
            </Array>
          </mxGeometry>
        </mxCell>
        <mxCell id="CgS1tnxDoKYdbe5IHRPY-15" style="edgeStyle=orthogonalEdgeStyle;rounded=1;orthogonalLoop=1;jettySize=auto;html=1;exitX=0;exitY=0.75;exitDx=0;exitDy=0;entryX=0;entryY=0.5;entryDx=0;entryDy=0;startArrow=none;startFill=0;endArrow=classic;endFill=1;" edge="1" parent="1" source="CgS1tnxDoKYdbe5IHRPY-16" target="CgS1tnxDoKYdbe5IHRPY-8">
          <mxGeometry relative="1" as="geometry">
            <Array as="points">
              <mxPoint x="260" y="499"/>
              <mxPoint x="260" y="574"/>
              <mxPoint x="80" y="574"/>
              <mxPoint x="80" y="404"/>
            </Array>
          </mxGeometry>
        </mxCell>
        <mxCell id="CgS1tnxDoKYdbe5IHRPY-16" value="&amp;nbsp; &amp;nbsp; &amp;nbsp; &amp;nbsp; &amp;nbsp; &lt;br&gt;&amp;nbsp; &amp;nbsp; &amp;nbsp; &amp;nbsp; &amp;nbsp; &amp;nbsp; &amp;nbsp; &amp;nbsp; &amp;nbsp; &lt;b&gt;Execute&lt;/b&gt;" style="rounded=0;whiteSpace=wrap;html=1;verticalAlign=top;labelPosition=center;verticalLabelPosition=middle;align=left;strokeWidth=2;fontFamily=Helvetica;" vertex="1" parent="1">
          <mxGeometry x="270" y="244" width="460" height="340" as="geometry"/>
        </mxCell>
        <mxCell id="CgS1tnxDoKYdbe5IHRPY-17" value="Int&amp;nbsp;" style="rounded=0;whiteSpace=wrap;html=1;align=right;labelPosition=left;verticalLabelPosition=middle;verticalAlign=middle;strokeWidth=2;fontFamily=Helvetica;" vertex="1" parent="1">
          <mxGeometry x="556" y="360.5588235294117" width="90" height="30" as="geometry"/>
        </mxCell>
        <mxCell id="CgS1tnxDoKYdbe5IHRPY-18" value="" style="endArrow=none;html=1;exitX=0.338;exitY=0.997;exitDx=0;exitDy=0;exitPerimeter=0;entryX=0.342;entryY=0.003;entryDx=0;entryDy=0;entryPerimeter=0;strokeWidth=2;fontFamily=Helvetica;" edge="1" parent="1" source="CgS1tnxDoKYdbe5IHRPY-17" target="CgS1tnxDoKYdbe5IHRPY-17">
          <mxGeometry width="50" height="50" relative="1" as="geometry">
            <mxPoint x="26" y="463.5588235294117" as="sourcePoint"/>
            <mxPoint x="427" y="283.5588235294117" as="targetPoint"/>
          </mxGeometry>
        </mxCell>
        <mxCell id="CgS1tnxDoKYdbe5IHRPY-19" value="" style="endArrow=none;html=1;exitX=0.668;exitY=1.01;exitDx=0;exitDy=0;exitPerimeter=0;entryX=0.672;entryY=-0.003;entryDx=0;entryDy=0;entryPerimeter=0;strokeWidth=2;fontFamily=Helvetica;" edge="1" parent="1" source="CgS1tnxDoKYdbe5IHRPY-17" target="CgS1tnxDoKYdbe5IHRPY-17">
          <mxGeometry width="50" height="50" relative="1" as="geometry">
            <mxPoint x="465.79999999999995" y="343.9388235294118" as="sourcePoint"/>
            <mxPoint x="466" y="283.5588235294117" as="targetPoint"/>
          </mxGeometry>
        </mxCell>
        <mxCell id="CgS1tnxDoKYdbe5IHRPY-20" value="Mul" style="rounded=0;whiteSpace=wrap;html=1;align=right;labelPosition=left;verticalLabelPosition=middle;verticalAlign=middle;strokeWidth=2;fontFamily=Helvetica;" vertex="1" parent="1">
          <mxGeometry x="556" y="399.5588235294117" width="90" height="30" as="geometry"/>
        </mxCell>
        <mxCell id="CgS1tnxDoKYdbe5IHRPY-21" value="" style="endArrow=none;html=1;exitX=0.338;exitY=0.997;exitDx=0;exitDy=0;exitPerimeter=0;entryX=0.342;entryY=0.003;entryDx=0;entryDy=0;entryPerimeter=0;strokeWidth=2;fontFamily=Helvetica;" edge="1" parent="1" source="CgS1tnxDoKYdbe5IHRPY-20" target="CgS1tnxDoKYdbe5IHRPY-20">
          <mxGeometry width="50" height="50" relative="1" as="geometry">
            <mxPoint x="26" y="503.5588235294117" as="sourcePoint"/>
            <mxPoint x="427" y="323.5588235294117" as="targetPoint"/>
          </mxGeometry>
        </mxCell>
        <mxCell id="CgS1tnxDoKYdbe5IHRPY-22" value="" style="endArrow=none;html=1;exitX=0.668;exitY=1.01;exitDx=0;exitDy=0;exitPerimeter=0;entryX=0.672;entryY=-0.003;entryDx=0;entryDy=0;entryPerimeter=0;strokeWidth=2;fontFamily=Helvetica;" edge="1" parent="1" source="CgS1tnxDoKYdbe5IHRPY-20" target="CgS1tnxDoKYdbe5IHRPY-20">
          <mxGeometry width="50" height="50" relative="1" as="geometry">
            <mxPoint x="465.79999999999995" y="383.9388235294118" as="sourcePoint"/>
            <mxPoint x="466" y="323.5588235294117" as="targetPoint"/>
          </mxGeometry>
        </mxCell>
        <mxCell id="CgS1tnxDoKYdbe5IHRPY-23" value="Div" style="rounded=0;whiteSpace=wrap;html=1;align=right;labelPosition=left;verticalLabelPosition=middle;verticalAlign=middle;strokeWidth=2;fontFamily=Helvetica;" vertex="1" parent="1">
          <mxGeometry x="376" y="521.0588235294117" width="90" height="30" as="geometry"/>
        </mxCell>
        <mxCell id="CgS1tnxDoKYdbe5IHRPY-24" value="" style="endArrow=none;html=1;exitX=0.338;exitY=0.997;exitDx=0;exitDy=0;exitPerimeter=0;entryX=0.342;entryY=0.003;entryDx=0;entryDy=0;entryPerimeter=0;strokeWidth=2;fontFamily=Helvetica;" edge="1" parent="1" source="CgS1tnxDoKYdbe5IHRPY-23" target="CgS1tnxDoKYdbe5IHRPY-23">
          <mxGeometry width="50" height="50" relative="1" as="geometry">
            <mxPoint x="26" y="543.5588235294117" as="sourcePoint"/>
            <mxPoint x="427" y="363.5588235294117" as="targetPoint"/>
          </mxGeometry>
        </mxCell>
        <mxCell id="CgS1tnxDoKYdbe5IHRPY-25" value="" style="endArrow=none;html=1;exitX=0.668;exitY=1.01;exitDx=0;exitDy=0;exitPerimeter=0;entryX=0.672;entryY=-0.003;entryDx=0;entryDy=0;entryPerimeter=0;strokeWidth=2;fontFamily=Helvetica;" edge="1" parent="1" source="CgS1tnxDoKYdbe5IHRPY-23" target="CgS1tnxDoKYdbe5IHRPY-23">
          <mxGeometry width="50" height="50" relative="1" as="geometry">
            <mxPoint x="465.79999999999995" y="423.9388235294118" as="sourcePoint"/>
            <mxPoint x="466" y="363.5588235294117" as="targetPoint"/>
          </mxGeometry>
        </mxCell>
        <mxCell id="CgS1tnxDoKYdbe5IHRPY-26" value="" style="rounded=0;whiteSpace=wrap;html=1;align=right;labelPosition=left;verticalLabelPosition=middle;verticalAlign=middle;strokeWidth=2;fontFamily=Helvetica;" vertex="1" parent="1">
          <mxGeometry x="466" y="521.0588235294117" width="90" height="30" as="geometry"/>
        </mxCell>
        <mxCell id="CgS1tnxDoKYdbe5IHRPY-27" value="" style="endArrow=none;html=1;exitX=0.338;exitY=0.997;exitDx=0;exitDy=0;exitPerimeter=0;entryX=0.342;entryY=0.003;entryDx=0;entryDy=0;entryPerimeter=0;strokeWidth=2;fontFamily=Helvetica;" edge="1" parent="1" source="CgS1tnxDoKYdbe5IHRPY-26" target="CgS1tnxDoKYdbe5IHRPY-26">
          <mxGeometry width="50" height="50" relative="1" as="geometry">
            <mxPoint x="-279" y="583.5588235294117" as="sourcePoint"/>
            <mxPoint x="122" y="403.5588235294117" as="targetPoint"/>
          </mxGeometry>
        </mxCell>
        <mxCell id="CgS1tnxDoKYdbe5IHRPY-28" value="" style="endArrow=none;html=1;exitX=0.668;exitY=1.01;exitDx=0;exitDy=0;exitPerimeter=0;entryX=0.672;entryY=-0.003;entryDx=0;entryDy=0;entryPerimeter=0;strokeWidth=2;fontFamily=Helvetica;" edge="1" parent="1" source="CgS1tnxDoKYdbe5IHRPY-26" target="CgS1tnxDoKYdbe5IHRPY-26">
          <mxGeometry width="50" height="50" relative="1" as="geometry">
            <mxPoint x="160.79999999999995" y="463.9388235294118" as="sourcePoint"/>
            <mxPoint x="161" y="403.5588235294117" as="targetPoint"/>
          </mxGeometry>
        </mxCell>
        <mxCell id="CgS1tnxDoKYdbe5IHRPY-29" value="" style="rounded=0;whiteSpace=wrap;html=1;align=right;labelPosition=left;verticalLabelPosition=middle;verticalAlign=middle;strokeWidth=2;fontFamily=Helvetica;" vertex="1" parent="1">
          <mxGeometry x="556" y="521.0588235294117" width="90" height="30" as="geometry"/>
        </mxCell>
        <mxCell id="CgS1tnxDoKYdbe5IHRPY-30" value="" style="endArrow=none;html=1;exitX=0.338;exitY=0.997;exitDx=0;exitDy=0;exitPerimeter=0;entryX=0.342;entryY=0.003;entryDx=0;entryDy=0;entryPerimeter=0;strokeWidth=2;fontFamily=Helvetica;" edge="1" parent="1" source="CgS1tnxDoKYdbe5IHRPY-29" target="CgS1tnxDoKYdbe5IHRPY-29">
          <mxGeometry width="50" height="50" relative="1" as="geometry">
            <mxPoint x="-269" y="593.5588235294117" as="sourcePoint"/>
            <mxPoint x="132" y="413.5588235294117" as="targetPoint"/>
          </mxGeometry>
        </mxCell>
        <mxCell id="CgS1tnxDoKYdbe5IHRPY-31" value="" style="endArrow=none;html=1;exitX=0.668;exitY=1.01;exitDx=0;exitDy=0;exitPerimeter=0;entryX=0.672;entryY=-0.003;entryDx=0;entryDy=0;entryPerimeter=0;strokeWidth=2;fontFamily=Helvetica;" edge="1" parent="1" source="CgS1tnxDoKYdbe5IHRPY-29" target="CgS1tnxDoKYdbe5IHRPY-29">
          <mxGeometry width="50" height="50" relative="1" as="geometry">
            <mxPoint x="170.79999999999995" y="473.9388235294118" as="sourcePoint"/>
            <mxPoint x="171" y="413.5588235294117" as="targetPoint"/>
          </mxGeometry>
        </mxCell>
        <mxCell id="CgS1tnxDoKYdbe5IHRPY-32" value="Float" style="rounded=0;whiteSpace=wrap;html=1;align=right;labelPosition=left;verticalLabelPosition=middle;verticalAlign=middle;strokeWidth=2;fontFamily=Helvetica;" vertex="1" parent="1">
          <mxGeometry x="466" y="479.5588235294117" width="90" height="30" as="geometry"/>
        </mxCell>
        <mxCell id="CgS1tnxDoKYdbe5IHRPY-33" value="" style="endArrow=none;html=1;exitX=0.338;exitY=0.997;exitDx=0;exitDy=0;exitPerimeter=0;entryX=0.342;entryY=0.003;entryDx=0;entryDy=0;entryPerimeter=0;strokeWidth=2;fontFamily=Helvetica;" edge="1" parent="1" source="CgS1tnxDoKYdbe5IHRPY-32" target="CgS1tnxDoKYdbe5IHRPY-32">
          <mxGeometry width="50" height="50" relative="1" as="geometry">
            <mxPoint x="-259" y="603.5588235294117" as="sourcePoint"/>
            <mxPoint x="142" y="423.5588235294117" as="targetPoint"/>
          </mxGeometry>
        </mxCell>
        <mxCell id="CgS1tnxDoKYdbe5IHRPY-34" value="" style="endArrow=none;html=1;exitX=0.668;exitY=1.01;exitDx=0;exitDy=0;exitPerimeter=0;entryX=0.672;entryY=-0.003;entryDx=0;entryDy=0;entryPerimeter=0;strokeWidth=2;fontFamily=Helvetica;" edge="1" parent="1" source="CgS1tnxDoKYdbe5IHRPY-32" target="CgS1tnxDoKYdbe5IHRPY-32">
          <mxGeometry width="50" height="50" relative="1" as="geometry">
            <mxPoint x="180.79999999999995" y="483.9388235294118" as="sourcePoint"/>
            <mxPoint x="181" y="423.5588235294117" as="targetPoint"/>
          </mxGeometry>
        </mxCell>
        <mxCell id="CgS1tnxDoKYdbe5IHRPY-35" value="" style="rounded=0;whiteSpace=wrap;html=1;align=right;labelPosition=left;verticalLabelPosition=middle;verticalAlign=middle;strokeWidth=2;fontFamily=Helvetica;" vertex="1" parent="1">
          <mxGeometry x="556" y="479.5588235294117" width="90" height="30" as="geometry"/>
        </mxCell>
        <mxCell id="CgS1tnxDoKYdbe5IHRPY-36" value="" style="endArrow=none;html=1;exitX=0.338;exitY=0.997;exitDx=0;exitDy=0;exitPerimeter=0;entryX=0.342;entryY=0.003;entryDx=0;entryDy=0;entryPerimeter=0;strokeWidth=2;fontFamily=Helvetica;" edge="1" parent="1" source="CgS1tnxDoKYdbe5IHRPY-35" target="CgS1tnxDoKYdbe5IHRPY-35">
          <mxGeometry width="50" height="50" relative="1" as="geometry">
            <mxPoint x="-249" y="613.5588235294117" as="sourcePoint"/>
            <mxPoint x="152" y="433.5588235294117" as="targetPoint"/>
          </mxGeometry>
        </mxCell>
        <mxCell id="CgS1tnxDoKYdbe5IHRPY-37" value="" style="endArrow=none;html=1;exitX=0.668;exitY=1.01;exitDx=0;exitDy=0;exitPerimeter=0;entryX=0.672;entryY=-0.003;entryDx=0;entryDy=0;entryPerimeter=0;strokeWidth=2;fontFamily=Helvetica;" edge="1" parent="1" source="CgS1tnxDoKYdbe5IHRPY-35" target="CgS1tnxDoKYdbe5IHRPY-35">
          <mxGeometry width="50" height="50" relative="1" as="geometry">
            <mxPoint x="190.79999999999995" y="493.9388235294118" as="sourcePoint"/>
            <mxPoint x="191" y="433.5588235294117" as="targetPoint"/>
          </mxGeometry>
        </mxCell>
        <mxCell id="CgS1tnxDoKYdbe5IHRPY-38" value="Mem" style="rounded=0;whiteSpace=wrap;html=1;align=right;labelPosition=left;verticalLabelPosition=middle;verticalAlign=middle;strokeWidth=2;fontFamily=Helvetica;" vertex="1" parent="1">
          <mxGeometry x="556" y="438.5588235294117" width="90" height="30" as="geometry"/>
        </mxCell>
        <mxCell id="CgS1tnxDoKYdbe5IHRPY-39" value="" style="endArrow=none;html=1;exitX=0.338;exitY=0.997;exitDx=0;exitDy=0;exitPerimeter=0;entryX=0.342;entryY=0.003;entryDx=0;entryDy=0;entryPerimeter=0;strokeWidth=2;fontFamily=Helvetica;" edge="1" parent="1" source="CgS1tnxDoKYdbe5IHRPY-38" target="CgS1tnxDoKYdbe5IHRPY-38">
          <mxGeometry width="50" height="50" relative="1" as="geometry">
            <mxPoint x="26" y="621.5588235294117" as="sourcePoint"/>
            <mxPoint x="427" y="441.5588235294117" as="targetPoint"/>
          </mxGeometry>
        </mxCell>
        <mxCell id="CgS1tnxDoKYdbe5IHRPY-40" value="" style="endArrow=none;html=1;exitX=0.668;exitY=1.01;exitDx=0;exitDy=0;exitPerimeter=0;entryX=0.672;entryY=-0.003;entryDx=0;entryDy=0;entryPerimeter=0;strokeWidth=2;fontFamily=Helvetica;" edge="1" parent="1" source="CgS1tnxDoKYdbe5IHRPY-38" target="CgS1tnxDoKYdbe5IHRPY-38">
          <mxGeometry width="50" height="50" relative="1" as="geometry">
            <mxPoint x="465.79999999999995" y="501.9388235294118" as="sourcePoint"/>
            <mxPoint x="466" y="441.5588235294117" as="targetPoint"/>
          </mxGeometry>
        </mxCell>
        <mxCell id="CgS1tnxDoKYdbe5IHRPY-41" value="Misc" style="rounded=0;whiteSpace=wrap;html=1;align=right;labelPosition=left;verticalLabelPosition=middle;verticalAlign=middle;strokeWidth=2;fontFamily=Helvetica;" vertex="1" parent="1">
          <mxGeometry x="616" y="284.0588235294117" width="30" height="30" as="geometry"/>
        </mxCell>
        <mxCell id="CgS1tnxDoKYdbe5IHRPY-42" value="Int&amp;nbsp;" style="rounded=0;whiteSpace=wrap;html=1;align=right;labelPosition=left;verticalLabelPosition=middle;verticalAlign=middle;strokeWidth=2;fontFamily=Helvetica;" vertex="1" parent="1">
          <mxGeometry x="556" y="321.5588235294117" width="90" height="30" as="geometry"/>
        </mxCell>
        <mxCell id="CgS1tnxDoKYdbe5IHRPY-43" value="" style="endArrow=none;html=1;exitX=0.338;exitY=0.997;exitDx=0;exitDy=0;exitPerimeter=0;entryX=0.342;entryY=0.003;entryDx=0;entryDy=0;entryPerimeter=0;strokeWidth=2;fontFamily=Helvetica;" edge="1" parent="1" source="CgS1tnxDoKYdbe5IHRPY-42" target="CgS1tnxDoKYdbe5IHRPY-42">
          <mxGeometry width="50" height="50" relative="1" as="geometry">
            <mxPoint x="26" y="423.5588235294117" as="sourcePoint"/>
            <mxPoint x="427" y="243.5588235294117" as="targetPoint"/>
          </mxGeometry>
        </mxCell>
        <mxCell id="CgS1tnxDoKYdbe5IHRPY-44" value="" style="endArrow=none;html=1;exitX=0.668;exitY=1.01;exitDx=0;exitDy=0;exitPerimeter=0;entryX=0.672;entryY=-0.003;entryDx=0;entryDy=0;entryPerimeter=0;strokeWidth=2;fontFamily=Helvetica;" edge="1" parent="1" source="CgS1tnxDoKYdbe5IHRPY-42" target="CgS1tnxDoKYdbe5IHRPY-42">
          <mxGeometry width="50" height="50" relative="1" as="geometry">
            <mxPoint x="465.79999999999995" y="303.9388235294118" as="sourcePoint"/>
            <mxPoint x="466" y="243.5588235294117" as="targetPoint"/>
          </mxGeometry>
        </mxCell>
        <mxCell id="CgS1tnxDoKYdbe5IHRPY-45" value="" style="endArrow=classicThin;html=1;strokeWidth=3;entryX=0;entryY=0.25;entryDx=0;entryDy=0;exitX=0;exitY=0.5;exitDx=0;exitDy=0;endSize=0;fillColor=#f8cecc;strokeColor=#CC0000;endFill=1;" edge="1" parent="1" source="CgS1tnxDoKYdbe5IHRPY-16" target="CgS1tnxDoKYdbe5IHRPY-42">
          <mxGeometry width="50" height="50" relative="1" as="geometry">
            <mxPoint x="70" y="660" as="sourcePoint"/>
            <mxPoint x="120" y="610" as="targetPoint"/>
            <Array as="points">
              <mxPoint x="390" y="414"/>
              <mxPoint x="390" y="329"/>
            </Array>
          </mxGeometry>
        </mxCell>
        <mxCell id="CgS1tnxDoKYdbe5IHRPY-46" value="" style="endArrow=classicThin;dashed=1;html=1;strokeWidth=3;entryX=0;entryY=0.25;entryDx=0;entryDy=0;exitX=0;exitY=0.5;exitDx=0;exitDy=0;endFill=1;endSize=0;fillColor=#f8cecc;strokeColor=#CC0000;" edge="1" parent="1" source="CgS1tnxDoKYdbe5IHRPY-16" target="CgS1tnxDoKYdbe5IHRPY-17">
          <mxGeometry width="50" height="50" relative="1" as="geometry">
            <mxPoint x="70" y="660" as="sourcePoint"/>
            <mxPoint x="120" y="610" as="targetPoint"/>
            <Array as="points">
              <mxPoint x="450" y="414"/>
              <mxPoint x="450" y="368"/>
            </Array>
          </mxGeometry>
        </mxCell>
      </root>
    </mxGraphModel>
  </diagram>
</mxfile>
